<?xml version="1.0" standalone="no"?>
<!DOCTYPE svg PUBLIC "-//W3C//DTD SVG 20010904//EN"
 "http://www.w3.org/TR/2001/REC-SVG-20010904/DTD/svg10.dtd">
<svg version="1.0" xmlns="http://www.w3.org/2000/svg"
 width="2481.000000pt" height="1890.000000pt" viewBox="0 0 2481.000000 1890.000000"
 preserveAspectRatio="xMidYMid meet">

<g transform="translate(0.000000,1890.000000) scale(0.100000,-0.100000)"
fill="#000000" stroke="none">
<path d="M18897 16713 c-4 -3 -7 -62 -7 -130 l0 -123 58 0 c95 0 141 42 142
130 0 66 -16 94 -67 115 -36 15 -114 20 -126 8z m129 -24 c25 -9 54 -66 54
-107 0 -46 -39 -95 -82 -104 -21 -4 -49 -3 -63 2 -24 9 -25 12 -25 100 0 115
7 131 58 123 20 -3 46 -9 58 -14z"/>
<path d="M19918 16712 l-58 -3 2 -127 c1 -70 3 -101 5 -70 4 63 5 63 83 71 22
2 13 4 -23 5 l-58 2 3 53 3 52 60 5 c75 6 61 16 -17 12z"/>
<path d="M21377 16713 c-4 -3 -7 -62 -7 -130 l0 -123 73 1 72 2 -55 6 c-76 9
-82 14 -76 69 2 26 5 48 5 50 1 1 24 2 51 2 66 0 64 18 -2 22 -57 3 -66 14
-54 64 6 22 11 24 63 24 31 0 54 2 52 4 -8 7 -116 16 -122 9z"/>
<path d="M21815 16710 c-36 -6 -33 -7 28 -9 51 -1 67 -4 67 -15 0 -13 -50
-128 -86 -198 -9 -17 -10 -28 -4 -28 6 0 15 11 20 25 5 14 28 64 50 111 51
108 51 120 3 121 -21 0 -56 -3 -78 -7z"/>
<path d="M18797 16703 c-9 -16 -7 -219 3 -233 7 -10 10 25 10 113 0 119 -2
138 -13 120z"/>
<path d="M19447 16685 c-31 -27 -24 -34 8 -9 20 15 20 13 25 -103 l6 -118 2
128 c1 70 -1 127 -5 127 -5 0 -21 -12 -36 -25z"/>
<path d="M19653 16703 c-13 -2 -23 -8 -23 -13 0 -5 14 -4 30 2 85 29 120 -46
55 -116 -14 -16 -24 -30 -22 -32 2 -2 18 12 35 31 25 27 32 44 32 74 0 55 -28
69 -107 54z"/>
<path d="M20076 16689 c-15 -12 -25 -24 -22 -26 3 -3 13 2 22 11 9 10 20 14
25 9 5 -5 10 -58 12 -118 l3 -110 2 128 c1 70 -2 127 -7 127 -4 0 -20 -10 -35
-21z"/>
<path d="M20296 16689 c-15 -12 -25 -24 -22 -26 3 -3 13 2 22 11 9 10 20 14
25 9 5 -5 10 -58 12 -118 l3 -110 2 128 c1 70 -2 127 -7 127 -4 0 -20 -10 -35
-21z"/>
<path d="M20507 16685 c-18 -16 -23 -25 -13 -25 8 0 16 4 18 9 2 5 10 11 18
13 12 2 16 -17 21 -112 l5 -115 2 128 c2 139 -1 146 -51 102z"/>
<path d="M20778 16703 c7 -3 16 -2 19 1 4 3 -2 6 -13 5 -11 0 -14 -3 -6 -6z"/>
<path d="M20974 16693 c-12 -37 -44 -120 -69 -175 -9 -21 -15 -42 -13 -49 2
-6 12 7 22 30 l19 41 59 0 60 0 15 -40 c9 -22 20 -40 24 -40 9 0 -14 66 -65
183 -9 21 -16 44 -16 52 0 21 -29 19 -36 -2z m44 -65 c11 -29 18 -56 15 -60
-8 -14 -83 -9 -83 5 0 20 33 107 41 107 4 0 16 -24 27 -52z"/>
<path d="M21248 16694 c23 -17 29 -48 12 -59 -5 -3 -10 -11 -10 -17 0 -6 9 -1
20 12 11 13 20 26 20 30 0 13 -25 37 -45 43 -18 6 -17 5 3 -9z"/>
<path d="M21599 16703 c-9 -2 -21 -15 -28 -29 -14 -32 -14 -139 1 -167 27 -52
75 -61 113 -22 22 21 25 33 25 100 0 67 -3 79 -25 100 -22 23 -48 29 -86 18z
m68 -11 c30 -19 44 -123 23 -176 -5 -14 -18 -30 -30 -36 -50 -27 -90 24 -90
113 0 44 5 59 25 81 24 26 49 32 72 18z"/>
<path d="M20711 16674 c-17 -21 -21 -41 -21 -96 0 -60 3 -72 25 -93 30 -30 64
-32 99 -4 20 16 26 29 26 60 0 48 -17 67 -62 74 l-33 5 33 -10 c68 -22 68
-118 0 -135 -21 -5 -33 -1 -52 18 -20 21 -24 34 -24 83 0 62 20 110 47 117 13
4 13 5 -1 6 -9 0 -26 -11 -37 -25z"/>
<path d="M21152 16688 c-18 -18 -15 -43 8 -63 11 -10 20 -23 20 -30 0 -6 13
-12 30 -12 61 0 93 -66 48 -97 -44 -31 -108 -7 -108 39 0 13 5 27 10 30 6 3
10 11 10 17 0 7 -6 6 -15 -2 -20 -17 -19 -74 2 -91 9 -8 35 -14 58 -14 52 0
75 18 75 59 0 38 -44 86 -77 86 -42 0 -68 51 -41 78 7 7 8 12 2 12 -5 0 -15
-5 -22 -12z"/>
<path d="M19162 16641 c4 -13 18 -16 19 -4 0 4 -5 9 -11 12 -7 2 -11 -2 -8 -8z"/>
<path d="M19660 16519 c0 -5 5 -7 10 -4 6 3 10 8 10 11 0 2 -4 4 -10 4 -5 0
-10 -5 -10 -11z"/>
<path d="M19633 16490 c-7 -11 -13 -22 -13 -25 0 -3 36 -5 81 -5 51 0 78 4 74
10 -3 6 -33 10 -65 10 -45 0 -59 4 -62 15 -2 13 -6 12 -15 -5z"/>
<path d="M19160 16476 c0 -9 7 -16 16 -16 17 0 14 22 -4 28 -7 2 -12 -3 -12
-12z"/>
<path d="M9620 15460 l0 -300 75 0 74 0 3 123 3 122 70 0 70 0 3 -122 3 -123
74 0 75 0 0 300 0 300 -75 0 -74 0 -3 -112 -3 -113 -70 0 -70 0 -3 113 -3 112
-74 0 -75 0 0 -300z"/>
<path d="M11220 15460 l0 -300 70 0 70 0 0 56 c0 49 3 58 32 84 l31 29 55 -84
54 -85 80 0 80 0 -17 28 c-10 15 -51 73 -92 130 -40 56 -73 105 -73 108 0 3
36 45 80 93 44 49 80 91 80 94 0 4 -33 7 -74 7 l-74 0 -52 -54 c-29 -30 -59
-64 -67 -75 -8 -12 -21 -21 -29 -21 -11 0 -14 25 -14 145 l0 145 -70 0 -70 0
0 -300z"/>
<path d="M12750 15461 l0 -301 75 0 74 0 0 102 c0 67 4 104 11 108 28 17 51
-6 101 -102 29 -55 58 -102 64 -104 7 -3 44 -4 83 -2 l71 3 -59 105 c-33 58
-59 111 -60 118 0 7 14 25 30 39 65 55 81 176 34 250 -44 67 -75 76 -261 81
l-163 4 0 -301z m283 166 c27 -19 31 -77 8 -106 -15 -20 -30 -25 -80 -29 l-61
-4 0 76 0 76 58 0 c32 0 66 -6 75 -13z"/>
<path d="M14360 15460 l0 -301 73 3 72 3 3 55 c3 52 29 100 54 100 4 0 32 -36
60 -80 l53 -80 78 0 c91 0 91 -8 -2 123 -77 107 -91 130 -91 144 0 7 36 52 80
100 l80 88 -78 3 -77 3 -72 -78 c-40 -42 -75 -75 -78 -71 -4 3 -6 62 -6 131 1
69 -2 132 -5 141 -5 13 -21 16 -75 16 l-69 0 0 -300z"/>
<path d="M10290 15619 c-56 -16 -120 -43 -120 -52 0 -10 29 -67 42 -84 7 -9
20 -7 51 8 64 28 159 24 172 -8 3 -9 4 -17 2 -19 -1 -2 -36 -8 -76 -15 -143
-22 -211 -72 -211 -154 0 -123 126 -181 258 -120 53 24 54 25 59 5 5 -17 14
-20 64 -20 l59 0 0 165 c0 176 -8 213 -57 257 -48 44 -157 60 -243 37z m160
-289 c0 -24 -7 -33 -40 -50 -60 -31 -120 -21 -120 19 0 37 42 59 113 60 46 1
47 0 47 -29z"/>
<path d="M10857 15616 c-89 -25 -161 -109 -174 -204 -12 -86 45 -196 122 -235
56 -27 130 -38 188 -26 55 12 121 42 132 59 7 12 -40 90 -53 90 -4 -1 -31 -9
-61 -19 -58 -20 -109 -14 -144 17 -28 25 -39 82 -24 132 17 58 61 84 131 76
27 -3 54 -10 60 -16 5 -5 15 -10 22 -10 11 0 64 72 64 88 0 5 -21 19 -46 31
-57 29 -151 36 -217 17z"/>
<path d="M11864 15617 c-102 -40 -160 -126 -158 -232 2 -72 21 -120 66 -164
82 -81 199 -97 324 -45 45 19 48 27 24 73 l-20 40 -41 -14 c-53 -19 -112 -19
-149 0 -32 16 -55 50 -45 65 4 6 67 10 151 10 l144 0 0 63 c0 80 -29 140 -87
181 -34 23 -54 29 -110 32 -39 2 -81 -2 -99 -9z m141 -122 c46 -45 35 -55 -60
-55 -88 0 -100 7 -72 42 34 44 96 50 132 13z"/>
<path d="M12505 15617 c-16 -8 -44 -26 -61 -40 -18 -15 -35 -27 -38 -27 -3 0
-6 16 -6 35 l0 35 -60 0 -60 0 0 -230 0 -230 69 0 69 0 4 129 c3 128 3 130 32
160 37 39 85 55 147 49 l48 -5 16 55 c12 39 13 58 6 65 -17 17 -132 19 -166 4z"/>
<path d="M13366 15606 c-38 -14 -73 -29 -78 -34 -8 -8 20 -67 47 -100 1 -1 17
6 36 15 42 21 129 29 158 14 33 -18 26 -39 -16 -46 -74 -10 -163 -35 -188 -51
-30 -20 -65 -83 -65 -116 1 -35 31 -89 63 -112 38 -28 159 -30 200 -3 32 21
56 22 63 2 5 -11 22 -15 66 -15 l60 0 -4 168 c-3 156 -5 170 -28 211 -50 88
-179 116 -314 67z m192 -278 c-2 -27 -10 -36 -42 -51 -40 -19 -99 -17 -111 3
-23 37 38 79 113 80 43 0 43 0 40 -32z"/>
<path d="M14004 15605 c-59 -30 -61 -30 -69 -5 -6 18 -14 21 -63 18 l-57 -3
-3 -227 -2 -228 75 0 75 0 0 154 c0 152 0 154 25 170 13 9 40 16 59 16 59 0
66 -21 66 -192 l0 -148 71 0 70 0 -3 183 c-3 202 -9 225 -67 264 -47 31 -112
31 -177 -2z"/>
<path d="M12640 14501 c-93 -20 -151 -79 -195 -196 -4 -11 -11 -67 -14 -125
l-6 -105 -55 -2 c-156 -7 -200 -14 -200 -33 0 -25 10 -27 134 -29 61 -1 113
-4 118 -7 4 -3 8 -176 8 -385 l0 -379 30 0 30 0 1 203 c0 111 0 279 0 372 0
94 3 176 7 182 6 9 62 13 197 15 l190 3 0 25 0 25 -190 3 c-136 2 -191 6 -197
15 -25 39 7 230 47 283 47 62 95 79 220 79 85 -1 117 -5 143 -18 38 -20 52
-16 52 18 0 19 -9 26 -47 40 -53 18 -219 28 -273 16z"/>
<path d="M11475 14414 c-28 -30 -31 -51 -14 -88 38 -82 166 -34 144 54 -16 64
-85 82 -130 34z"/>
<path d="M13578 14423 c-24 -28 -28 -63 -13 -99 16 -40 52 -52 96 -34 52 22
65 77 28 124 -25 32 -87 37 -111 9z"/>
<path d="M7244 14397 c-268 -56 -424 -332 -384 -681 18 -162 59 -262 147 -356
92 -100 204 -144 350 -138 73 3 99 8 153 34 36 17 87 52 115 78 l49 46 -21 22
-21 21 -56 -47 c-125 -107 -292 -122 -433 -39 -132 77 -213 259 -213 478 0
229 92 417 237 485 132 62 280 47 387 -38 30 -25 42 -30 57 -21 34 18 22 46
-38 89 -93 67 -212 91 -329 67z"/>
<path d="M10278 14202 c-2 -59 -8 -113 -12 -120 -5 -8 -36 -12 -89 -12 -45 0
-99 -3 -120 -7 -37 -6 -57 -26 -42 -41 3 -4 61 -9 128 -12 l122 -5 5 -295 c5
-272 7 -299 26 -340 27 -58 67 -97 129 -126 61 -29 188 -33 287 -8 94 23 109
32 96 59 l-10 23 -67 -19 c-73 -21 -194 -25 -253 -9 -45 13 -91 50 -115 93
-15 28 -18 69 -21 330 l-4 297 210 0 c116 0 217 3 226 6 9 3 16 17 16 30 l0
24 -222 2 -223 3 -3 118 -3 117 -28 0 -28 0 -5 -108z"/>
<path d="M16576 14198 c-4 -61 -10 -116 -12 -120 -3 -4 -34 -8 -68 -8 -35 0
-91 -3 -125 -6 -56 -6 -62 -9 -59 -28 3 -20 10 -21 124 -24 l121 -3 5 -32 c3
-18 6 -137 6 -265 1 -250 10 -323 48 -383 27 -44 62 -70 126 -94 61 -23 226
-17 307 11 58 20 67 30 51 54 -8 13 -17 13 -77 -3 -99 -25 -217 -23 -273 6
-51 25 -95 84 -104 138 -6 39 -9 559 -3 565 2 2 98 4 213 4 115 1 216 5 223 9
7 5 11 17 9 27 -3 18 -17 19 -226 22 l-222 2 -1 103 c-2 137 -1 132 -30 135
l-26 3 -7 -113z"/>
<path d="M8205 14072 c-160 -55 -264 -179 -286 -341 -41 -296 141 -511 434
-511 97 0 162 15 246 58 60 30 67 40 48 65 -12 17 -16 16 -73 -12 -86 -42
-140 -54 -241 -49 -73 3 -98 9 -148 33 -75 38 -130 92 -162 161 -30 67 -45
150 -28 164 7 6 149 11 356 12 l344 3 3 50 c10 150 -69 290 -197 352 -73 35
-218 43 -296 15z m271 -69 c91 -48 145 -134 147 -237 l2 -61 -315 0 -315 0 -3
34 c-2 18 1 38 7 44 6 6 11 19 11 28 0 23 81 131 119 158 17 13 55 31 84 42
71 26 204 22 263 -8z"/>
<path d="M9485 14083 c-42 -9 -99 -35 -141 -64 -45 -31 -144 -128 -144 -141 0
-5 -4 -8 -10 -8 -5 0 -10 24 -11 53 0 28 -4 72 -7 97 -6 40 -10 45 -32 45
l-25 0 -3 -412 -2 -413 35 0 35 0 0 256 0 255 27 47 c46 78 134 159 210 194
59 26 80 31 154 31 50 0 100 -5 119 -13 27 -11 33 -11 41 1 18 27 5 54 -31 66
-34 11 -173 15 -215 6z"/>
<path d="M14516 14066 c-38 -13 -81 -33 -97 -45 -15 -12 -31 -21 -34 -21 -11
0 -76 -75 -101 -116 -39 -65 -54 -131 -54 -235 0 -139 29 -217 113 -302 86
-87 190 -127 332 -127 89 0 146 14 220 55 71 39 99 68 90 94 -8 27 -21 27 -62
-5 -152 -116 -388 -109 -512 15 -112 112 -142 299 -71 446 38 79 90 131 170
169 59 27 74 30 165 30 107 1 143 -11 223 -71 35 -26 58 -25 69 3 8 21 -29 53
-112 97 -54 28 -70 31 -165 34 -90 3 -115 0 -174 -21z"/>
<path d="M15585 14083 c-92 -21 -255 -97 -255 -118 0 -7 7 -18 16 -25 13 -11
27 -8 87 22 118 58 136 63 237 63 100 0 137 -11 188 -59 31 -27 58 -89 65
-148 7 -55 -6 -68 -67 -68 -99 0 -356 -59 -436 -100 -89 -46 -146 -145 -135
-232 17 -121 128 -198 286 -198 103 0 182 28 292 102 32 22 61 38 64 35 7 -7
11 -36 12 -79 1 -35 3 -38 31 -38 l30 0 0 288 c0 307 -5 350 -52 434 -26 47
-98 101 -156 118 -37 10 -168 12 -207 3z m345 -515 l0 -129 -37 -35 c-21 -19
-76 -53 -122 -76 -76 -37 -94 -42 -171 -46 -77 -4 -92 -2 -142 22 -81 39 -114
99 -97 178 26 112 159 175 449 212 52 6 101 10 108 8 9 -3 12 -39 12 -134z"/>
<path d="M17675 14081 c-58 -14 -143 -64 -189 -109 -27 -26 -63 -78 -84 -120
-33 -68 -37 -84 -40 -172 -6 -150 27 -245 115 -335 85 -87 186 -125 329 -125
95 0 150 14 246 61 54 26 61 37 43 63 -13 16 -18 15 -92 -20 -70 -34 -88 -39
-175 -42 -113 -5 -177 12 -250 65 -73 53 -117 122 -138 215 -21 94 -49 87 352
90 l353 3 -1 66 c-1 142 -67 267 -169 322 -80 43 -211 59 -300 38z m257 -85
c45 -26 93 -76 115 -121 16 -31 36 -142 30 -160 -6 -13 -46 -15 -321 -15 -194
0 -317 4 -321 10 -7 11 16 94 40 139 22 44 80 106 122 132 66 41 103 49 198
46 76 -3 97 -8 137 -31z"/>
<path d="M11097 14064 c-13 -13 -7 -42 10 -48 9 -4 102 -6 206 -6 148 1 192
-1 198 -12 5 -7 8 -179 7 -383 l-2 -370 37 -3 37 -3 -2 413 -3 413 -241 3
c-132 1 -243 -1 -247 -4z"/>
<path d="M13202 14043 l3 -28 204 -5 205 -5 0 -380 1 -380 31 -3 c24 -2 32 1
35 15 2 10 3 197 1 416 l-3 397 -240 0 -240 0 3 -27z"/>
<path d="M10480 11456 c0 -179 1 -186 20 -186 19 0 20 7 20 94 0 108 12 131
71 141 30 6 40 3 58 -16 18 -20 21 -35 21 -121 0 -80 3 -98 15 -98 12 0 15 18
15 104 0 90 -3 107 -21 130 -20 25 -27 27 -73 24 -28 -3 -59 -8 -68 -12 -15
-7 -17 0 -20 56 -2 50 -6 63 -20 66 -17 3 -18 -11 -18 -182z"/>
<path d="M13464 11632 c-16 -10 -34 -48 -34 -70 0 -11 -10 -27 -22 -35 l-23
-16 23 -7 c21 -6 22 -11 22 -120 0 -94 3 -114 15 -114 12 0 15 22 17 117 l3
117 29 1 c42 0 45 23 4 27 -25 2 -34 8 -36 25 -4 28 34 66 59 60 10 -3 23 1
30 9 9 12 4 14 -32 14 -24 0 -49 -4 -55 -8z"/>
<path d="M14149 11593 c-8 -278 -5 -323 17 -323 11 0 14 20 14 94 0 115 14
141 79 141 60 0 70 -20 71 -137 0 -80 3 -98 15 -98 12 0 15 18 15 104 0 89 -3
107 -21 130 -17 22 -28 26 -69 26 -27 0 -52 -4 -55 -10 -3 -5 -13 -10 -21 -10
-11 0 -14 15 -14 65 0 51 -3 65 -15 65 -11 0 -15 -13 -16 -47z"/>
<path d="M10794 11615 c-9 -23 14 -45 26 -25 5 8 8 19 7 24 -6 17 -27 18 -33
1z"/>
<path d="M11290 11620 c-11 -7 -11 -11 -1 -24 18 -22 31 -20 31 3 0 24 -12 32
-30 21z"/>
<path d="M13293 11614 c-8 -22 15 -44 26 -25 10 16 4 41 -10 41 -5 0 -12 -7
-16 -16z"/>
<path d="M10170 11606 c0 -11 15 -16 53 -18 l52 -3 3 -157 c2 -150 4 -158 22
-158 19 0 20 7 20 160 l0 160 55 0 c42 0 55 3 55 15 0 13 -21 15 -130 15 -107
0 -130 -3 -130 -14z"/>
<path d="M11791 11560 c-5 -16 -17 -30 -25 -30 -9 0 -16 -7 -16 -15 0 -8 7
-15 15 -15 12 0 15 -16 15 -80 0 -48 6 -95 14 -115 14 -33 18 -35 60 -35 33 0
46 4 46 14 0 9 -7 12 -19 9 -10 -3 -28 0 -40 6 -19 11 -21 20 -21 106 0 88 1
95 20 96 11 1 25 3 30 4 6 1 15 3 20 4 26 3 6 20 -27 23 -33 3 -38 7 -41 31
-4 36 -17 34 -31 -3z"/>
<path d="M13125 11568 c-4 -13 -16 -30 -28 -39 l-20 -17 21 -6 c21 -7 22 -14
22 -104 1 -116 9 -132 69 -132 22 0 41 5 41 10 0 6 -11 10 -24 10 -45 0 -56
23 -56 120 l0 89 37 3 c52 4 56 28 4 28 -39 0 -41 2 -41 30 0 35 -16 40 -25 8z"/>
<path d="M13977 11560 c-4 -18 -13 -30 -22 -30 -19 0 -20 -16 0 -24 12 -4 15
-24 15 -93 0 -116 11 -137 73 -141 28 -2 47 1 47 7 0 6 -9 11 -21 11 -11 0
-29 5 -40 10 -17 9 -19 22 -19 105 l0 94 32 3 c46 4 49 28 4 28 -33 0 -36 2
-36 30 0 19 -5 30 -14 30 -7 0 -16 -13 -19 -30z"/>
<path d="M14745 11570 c-4 -12 -16 -29 -27 -40 -19 -17 -19 -20 -5 -26 14 -5
17 -21 17 -91 0 -80 10 -119 34 -135 17 -11 86 -9 86 2 0 6 -10 10 -23 10 -50
0 -58 17 -55 120 2 76 6 94 17 92 22 -5 61 7 61 18 0 6 -18 10 -40 10 -38 0
-40 2 -40 30 0 34 -15 40 -25 10z"/>
<path d="M10790 11400 c0 -109 2 -130 15 -130 13 0 15 21 15 130 0 109 -2 130
-15 130 -13 0 -15 -21 -15 -130z"/>
<path d="M10920 11510 c-25 -25 -26 -62 -2 -83 9 -8 37 -24 62 -35 55 -23 74
-44 65 -71 -8 -25 -63 -37 -105 -23 -30 11 -47 2 -35 -18 9 -14 128 -12 147 3
55 43 39 95 -40 130 -32 13 -64 32 -72 42 -13 15 -12 19 10 37 20 16 33 18 73
13 39 -6 48 -4 45 6 -3 9 -25 15 -66 17 -51 2 -65 -1 -82 -18z"/>
<path d="M11290 11400 c0 -109 2 -130 15 -130 13 0 15 21 15 130 0 109 -2 130
-15 130 -13 0 -15 -21 -15 -130z"/>
<path d="M11417 11512 c-18 -19 -22 -58 -9 -78 4 -7 34 -25 67 -40 49 -24 61
-34 63 -56 4 -37 -26 -52 -90 -44 -39 5 -49 4 -46 -6 3 -9 26 -13 73 -13 62 0
69 2 88 27 29 39 15 77 -38 101 -80 36 -90 43 -93 65 -4 29 37 45 96 36 35 -5
44 -4 40 7 -3 10 -25 15 -69 17 -53 2 -68 -1 -82 -16z"/>
<path d="M11980 11500 c-47 -51 -47 -152 1 -200 26 -26 38 -30 84 -30 48 0 56
3 84 35 27 31 31 43 31 95 0 52 -4 64 -31 95 -28 32 -36 35 -86 35 -48 0 -58
-4 -83 -30z m142 -17 c21 -19 32 -87 20 -127 -4 -16 -20 -39 -35 -50 -23 -17
-31 -18 -65 -8 -25 8 -43 21 -50 37 -15 33 -15 97 -1 129 21 45 91 55 131 19z"/>
<path d="M12423 11515 c-12 -8 -29 -37 -38 -64 -13 -40 -14 -57 -4 -95 16 -65
48 -88 116 -84 67 4 70 22 4 26 -67 4 -86 26 -86 102 0 76 19 98 88 102 29 2
52 8 55 16 6 18 -108 16 -135 -3z"/>
<path d="M12644 11495 c-51 -68 -27 -204 40 -221 12 -3 47 -4 76 -2 44 2 56 7
58 21 3 16 0 18 -20 11 -46 -15 -102 -5 -125 22 -28 30 -30 63 -5 65 9 1 48 3
86 5 38 1 72 6 77 11 12 12 -8 72 -34 101 -16 17 -31 22 -73 22 -49 0 -55 -3
-80 -35z m134 -12 c6 -9 12 -27 12 -40 0 -22 -4 -23 -64 -23 -36 0 -68 4 -71
10 -9 14 22 68 42 73 28 8 67 -2 81 -20z"/>
<path d="M12910 11400 c0 -117 2 -130 18 -130 15 0 17 12 19 91 1 79 4 94 23
114 13 13 36 25 53 27 17 2 32 9 35 16 6 18 -63 16 -78 -3 -7 -8 -19 -15 -26
-15 -8 0 -14 7 -14 15 0 8 -7 15 -15 15 -13 0 -15 -21 -15 -130z"/>
<path d="M13290 11400 c0 -109 2 -130 15 -130 13 0 15 21 15 130 0 109 -2 130
-15 130 -13 0 -15 -21 -15 -130z"/>
<path d="M13550 11525 c0 -5 37 -100 54 -140 44 -99 48 -120 32 -158 -10 -26
-23 -38 -45 -44 -39 -10 -44 -27 -10 -31 50 -6 75 31 139 201 33 86 60 162 60
167 0 6 -6 10 -14 10 -13 0 -45 -72 -76 -173 -7 -21 -16 -37 -22 -35 -9 3 -30
54 -66 161 -11 33 -21 47 -34 47 -10 0 -18 -2 -18 -5z"/>
<path d="M14483 11523 c-7 -2 -13 -10 -13 -17 0 -10 10 -11 43 -5 58 10 92 -6
92 -46 0 -29 -2 -30 -55 -35 -30 -3 -65 -11 -77 -18 -45 -25 -53 -80 -17 -116
21 -21 107 -22 124 -1 7 8 16 15 21 15 5 0 9 -7 9 -15 0 -8 7 -15 15 -15 12 0
15 19 15 108 0 135 -11 152 -93 151 -29 0 -58 -3 -64 -6z m123 -138 c9 -24
-19 -74 -48 -86 -58 -24 -106 19 -79 69 17 31 117 44 127 17z"/>
<path d="M11090 10100 l0 -431 78 3 77 3 5 201 c5 200 5 201 33 237 28 37 83
61 115 50 36 -11 61 -26 69 -42 4 -9 10 -113 13 -231 l5 -215 80 0 80 0 0 240
c0 207 -2 244 -17 271 -65 119 -254 147 -347 52 -17 -17 -31 -28 -32 -22 0 5
0 78 1 162 l2 152 -81 0 -81 0 0 -430z"/>
<path d="M11839 10511 c-18 -14 -24 -29 -24 -61 0 -53 29 -80 87 -80 49 0 88
35 88 80 0 68 -95 107 -151 61z"/>
<path d="M14260 10100 l0 -431 78 3 77 3 5 190 c7 240 20 276 107 295 45 11
95 -8 115 -42 9 -16 14 -86 18 -233 l5 -210 78 -3 78 -3 -3 243 c-3 229 -4
245 -25 284 -26 49 -68 77 -139 93 -70 17 -153 -5 -200 -50 l-34 -33 0 162 0
162 -80 0 -80 0 0 -430z"/>
<path d="M15523 10504 c-21 -21 -24 -32 -19 -62 7 -47 37 -72 88 -72 49 0 88
35 88 80 0 74 -102 109 -157 54z"/>
<path d="M9335 10457 c-3 -6 -4 -185 -3 -397 l3 -385 73 -3 74 -3 -4 305 c-1
168 0 302 4 298 7 -7 24 -59 98 -302 23 -74 53 -172 67 -218 l26 -83 76 3 76
3 101 302 c55 166 103 305 106 308 3 3 5 -133 4 -302 l-1 -308 75 0 75 0 0
395 0 395 -113 0 -114 0 -84 -255 c-106 -321 -115 -344 -124 -333 -8 8 -38
102 -99 303 -18 58 -46 147 -62 198 l-31 92 -109 0 c-79 0 -111 -4 -114 -13z"/>
<path d="M12962 10073 l3 -398 243 -3 242 -2 0 70 0 70 -162 2 -163 3 -3 328
-2 327 -80 0 -80 0 2 -397z"/>
<path d="M12219 10348 c-19 -49 -33 -68 -69 -93 -35 -24 -46 -39 -48 -63 -3
-31 -2 -32 37 -32 l40 0 3 -187 c4 -221 13 -252 89 -291 39 -21 54 -23 132
-19 110 6 129 19 125 86 l-3 46 -65 -3 c-54 -3 -70 0 -90 16 -24 20 -25 25
-28 172 -3 107 0 155 8 166 9 10 35 14 92 14 l79 0 -3 58 -3 57 -85 5 -85 5
-3 63 -3 62 -48 0 -48 0 -24 -62z"/>
<path d="M10565 10286 c-147 -36 -218 -138 -217 -310 1 -188 97 -300 268 -313
129 -10 224 37 279 139 25 46 30 66 33 150 8 196 -63 302 -226 337 -63 13 -72
13 -137 -3z m143 -142 c42 -29 57 -72 56 -169 0 -103 -16 -145 -64 -170 -38
-20 -77 -19 -120 3 -83 41 -96 247 -20 324 23 23 37 28 77 28 28 0 58 -7 71
-16z"/>
<path d="M13760 10286 c-95 -27 -144 -68 -182 -151 -19 -43 -23 -66 -23 -160
0 -93 4 -117 22 -156 30 -63 99 -122 169 -144 73 -23 229 -17 289 11 38 18 40
22 43 68 2 27 -1 53 -5 57 -5 5 -38 0 -73 -11 -127 -39 -230 -18 -264 54 -9
18 -16 46 -16 60 l0 26 195 0 195 0 0 70 c0 94 -28 166 -84 218 -64 59 -177
84 -266 58z m152 -133 c23 -21 33 -38 42 -75 l6 -28 -120 0 c-134 0 -135 1
-103 67 9 20 29 41 47 49 39 18 101 11 128 -13z"/>
<path d="M15271 10283 c-25 -9 -63 -35 -87 -59 l-42 -44 -13 50 -13 50 -63 0
-63 0 2 -302 3 -303 76 -3 76 -3 6 77 c3 42 3 106 0 143 -8 99 10 173 53 210
37 33 55 39 124 43 l45 3 8 69 c4 38 5 71 3 73 -12 12 -77 10 -115 -4z"/>
<path d="M11822 9978 l3 -303 78 -3 77 -3 0 306 0 305 -80 0 -80 0 2 -302z"/>
<path d="M15512 9978 l3 -303 75 0 75 0 3 303 2 302 -80 0 -80 0 2 -302z"/>
<path d="M7269 8503 c-7 -50 2 -293 10 -293 5 0 11 36 13 80 5 93 22 120 74
120 53 0 64 -20 64 -116 0 -68 3 -84 15 -84 12 0 15 16 15 80 0 89 -11 123
-47 139 -30 14 -70 14 -78 1 -9 -14 -46 -12 -44 3 1 6 1 31 0 55 -1 47 -17 57
-22 15z"/>
<path d="M9692 8517 c-6 -6 -14 -26 -18 -42 -3 -17 -14 -38 -22 -47 -14 -16
-13 -18 1 -18 15 0 17 -14 17 -100 0 -82 3 -100 15 -100 12 0 15 18 15 99 l0
100 28 3 c15 2 27 8 27 13 0 6 -12 11 -27 13 -45 5 -29 72 17 72 13 0 27 5 30
10 9 15 -71 12 -83 -3z"/>
<path d="M10080 8370 c0 -121 3 -160 13 -160 9 0 12 31 11 127 -2 183 -3 193
-14 193 -6 0 -10 -60 -10 -160z"/>
<path d="M10190 8370 c0 -136 2 -160 15 -160 13 0 15 24 15 160 0 136 -2 160
-15 160 -13 0 -15 -24 -15 -160z"/>
<path d="M10840 8370 c0 -136 2 -160 15 -160 13 0 15 24 15 160 0 136 -2 160
-15 160 -13 0 -15 -24 -15 -160z"/>
<path d="M12030 8477 c0 -30 -3 -56 -6 -59 -3 -4 -17 0 -32 8 -33 17 -53 18
-86 3 -32 -15 -47 -53 -48 -118 0 -41 5 -58 22 -76 31 -33 71 -40 111 -19 23
11 34 13 37 5 2 -6 9 -11 15 -11 9 0 11 43 9 160 -2 93 -7 160 -12 160 -6 0
-10 -24 -10 -53z m-17 -108 c40 -77 -13 -162 -85 -137 -61 21 -61 155 0 176
38 13 64 1 85 -39z"/>
<path d="M12400 8370 c0 -136 2 -160 15 -160 12 0 15 14 15 70 0 110 39 157
102 126 21 -11 23 -19 26 -104 2 -73 6 -92 17 -92 12 0 15 18 15 94 0 91 -1
95 -27 116 -28 22 -48 22 -110 4 -22 -6 -23 -4 -23 50 0 43 -3 56 -15 56 -13
0 -15 -24 -15 -160z"/>
<path d="M15577 8512 c-10 -10 -17 -30 -17 -45 0 -17 -8 -31 -22 -38 l-22 -12
22 -8 c21 -8 22 -14 22 -104 0 -78 3 -95 15 -95 12 0 15 18 15 100 0 99 0 100
24 100 35 0 42 18 9 22 -22 2 -29 9 -31 32 -4 31 10 46 45 46 12 0 25 5 28 10
12 19 -71 11 -88 -8z"/>
<path d="M16409 8518 c-6 -80 1 -308 10 -308 4 0 11 37 14 81 4 64 10 86 25
102 22 21 77 26 94 9 5 -5 10 -51 11 -101 2 -65 6 -91 15 -91 9 0 12 27 12
100 l0 100 -35 17 c-36 17 -38 17 -107 -12 -16 -6 -18 0 -18 54 0 34 -4 61
-10 61 -5 0 -10 -6 -11 -12z"/>
<path d="M17250 8370 c0 -100 4 -160 10 -160 6 0 10 14 10 31 0 33 15 69 29
69 5 0 26 -22 47 -50 22 -28 46 -50 57 -50 15 0 10 11 -27 58 -25 32 -46 62
-46 66 0 5 16 26 35 47 19 22 35 44 35 49 0 19 -37 -8 -76 -55 -21 -24 -41
-42 -45 -39 -5 3 -8 28 -8 57 2 97 -1 137 -11 137 -6 0 -10 -60 -10 -160z"/>
<path d="M17588 8503 c-3 -16 -6 -88 -7 -160 -2 -112 0 -133 13 -133 11 0 15
18 18 88 2 48 2 120 0 160 -3 73 -15 95 -24 45z"/>
<path d="M17700 8371 c0 -131 3 -161 14 -161 19 0 18 311 -1 317 -10 4 -13
-32 -13 -156z"/>
<path d="M17476 8513 c-11 -11 -6 -23 8 -23 8 0 17 4 20 9 7 10 -19 23 -28 14z"/>
<path d="M12260 8468 c0 -6 -8 -20 -17 -31 -13 -15 -15 -21 -5 -24 8 -3 12
-30 12 -84 0 -44 4 -89 10 -99 11 -20 50 -33 74 -24 26 10 18 24 -13 24 -36 0
-41 12 -41 105 l0 74 33 3 c17 2 31 8 29 13 -2 10 -8 11 -44 14 -11 1 -18 9
-18 21 0 11 -4 20 -10 20 -5 0 -10 -5 -10 -12z"/>
<path d="M15273 8445 c-17 -27 -19 -35 -8 -35 12 0 15 -17 15 -82 1 -50 6 -89
13 -99 17 -22 53 -32 74 -20 10 6 16 11 13 11 -3 1 -13 3 -23 5 -39 7 -47 25
-47 106 l0 79 30 0 c20 0 30 5 30 15 0 9 -6 15 -12 14 -34 -4 -48 2 -48 21 0
29 -12 24 -37 -15z"/>
<path d="M16260 8464 c0 -9 -8 -23 -17 -30 -13 -10 -15 -16 -7 -21 7 -5 13
-44 15 -90 3 -61 9 -87 21 -100 22 -21 78 -27 78 -7 0 8 -10 14 -25 14 -32 0
-43 23 -43 90 0 75 5 88 34 92 37 5 34 23 -4 26 -28 3 -33 7 -29 23 3 12 0 19
-9 19 -8 0 -14 -7 -14 -16z"/>
<path d="M7572 8429 c-33 -13 -18 -29 17 -19 39 11 76 -8 76 -40 0 -22 -6 -26
-46 -31 -81 -12 -109 -40 -95 -95 11 -43 63 -52 125 -21 19 9 25 9 28 0 3 -7
9 -13 14 -13 5 0 9 41 9 90 0 83 -2 93 -25 115 -25 26 -62 31 -103 14z m98
-136 c0 -14 -7 -35 -17 -45 -18 -20 -73 -24 -91 -6 -33 33 7 78 70 78 34 0 38
-2 38 -27z"/>
<path d="M7798 8429 c-10 -5 -22 -19 -28 -29 -17 -31 5 -59 64 -85 90 -40 81
-91 -14 -87 -59 2 -67 -13 -12 -23 39 -6 91 7 104 28 26 41 -3 87 -65 102 -34
9 -59 38 -51 59 7 17 19 20 77 17 40 -3 51 13 15 23 -34 9 -71 7 -90 -5z"/>
<path d="M8117 8424 c-23 -13 -28 -21 -25 -47 3 -28 10 -35 61 -60 67 -32 80
-52 48 -78 -17 -14 -32 -17 -67 -12 -55 7 -60 -12 -5 -22 25 -4 51 -1 75 9 35
14 37 18 34 53 -3 35 -7 40 -60 65 -43 21 -58 33 -58 48 0 26 32 38 85 33 38
-4 39 -3 21 11 -25 20 -73 20 -109 0z"/>
<path d="M8310 8342 c0 -81 3 -102 18 -115 28 -25 68 -31 103 -13 23 11 36 13
45 5 19 -15 21 -3 20 106 -2 122 -20 144 -24 30 -3 -96 -22 -128 -71 -128 -17
0 -37 5 -44 12 -7 7 -14 51 -17 103 -3 61 -9 93 -17 96 -10 3 -13 -21 -13 -96z"/>
<path d="M8621 8426 c-34 -19 -50 -54 -51 -109 0 -55 19 -90 58 -106 31 -12
78 -9 95 8 8 8 -2 11 -40 11 -63 0 -83 22 -83 90 0 66 20 90 76 90 32 0 44 4
42 13 -6 17 -68 19 -97 3z"/>
<path d="M8827 8424 c-15 -8 -32 -26 -37 -40 -13 -34 -13 -111 1 -136 15 -27
71 -49 108 -42 46 9 37 24 -13 24 -56 0 -76 24 -76 90 0 66 20 90 76 90 44 0
58 12 28 24 -26 10 -57 6 -87 -10z"/>
<path d="M9040 8427 c-28 -14 -59 -69 -60 -105 -1 -74 66 -129 141 -117 59 10
50 31 -12 26 -56 -3 -84 13 -91 54 -6 30 6 35 88 35 71 0 82 9 65 52 -23 60
-77 83 -131 55z m88 -30 c6 -5 12 -20 12 -33 0 -23 -3 -24 -60 -24 -51 0 -60
3 -60 18 1 50 64 73 108 39z"/>
<path d="M9260 8427 c-19 -10 -25 -20 -25 -47 0 -33 4 -37 59 -65 33 -16 61
-36 64 -43 8 -26 -19 -42 -75 -42 -59 0 -64 -15 -9 -25 20 -4 47 -1 70 9 35
14 37 18 34 53 -3 35 -7 40 -60 65 -43 21 -58 33 -58 48 0 25 33 39 78 33 18
-3 32 -1 32 5 0 24 -70 29 -110 9z"/>
<path d="M9472 8428 c-23 -11 -38 -46 -30 -70 3 -7 31 -26 64 -43 42 -21 59
-36 59 -50 0 -29 -42 -46 -88 -36 -28 7 -37 6 -37 -4 0 -23 82 -30 119 -11 26
14 31 22 31 51 0 37 -21 58 -72 70 -14 4 -34 16 -44 26 -28 31 1 53 68 51 49
-2 51 -1 34 13 -23 17 -71 19 -104 3z"/>
<path d="M9810 8346 c0 -52 3 -101 6 -110 3 -9 24 -20 45 -26 31 -9 45 -8 68
5 19 9 32 11 36 5 18 -29 25 1 25 106 0 74 -4 113 -10 109 -5 -3 -10 -34 -10
-69 0 -35 -5 -77 -11 -94 -13 -38 -55 -56 -90 -38 -22 11 -24 18 -27 103 -2
69 -6 93 -17 97 -13 4 -15 -10 -15 -88z"/>
<path d="M10672 8424 c-50 -35 -67 -120 -35 -175 24 -40 82 -58 121 -38 l27
14 -47 3 c-58 4 -88 35 -88 92 0 58 31 90 86 90 44 0 58 12 28 24 -28 11 -69
6 -92 -10z"/>
<path d="M10975 8410 c-26 -27 -30 -38 -30 -90 0 -48 4 -63 24 -83 29 -31 86
-43 126 -25 30 12 29 12 -29 18 -49 4 -62 10 -79 32 -34 45 -18 58 69 58 l77
0 -6 37 c-8 48 -35 73 -83 80 -34 4 -43 1 -69 -27z m112 -26 c21 -33 9 -44
-52 -44 -60 0 -67 5 -54 38 17 44 78 48 106 6z"/>
<path d="M11237 8431 c-35 -13 -22 -25 25 -22 40 2 49 -1 63 -23 21 -32 12
-46 -29 -46 -100 0 -152 -70 -90 -119 32 -25 55 -26 96 -5 25 13 32 13 39 3 4
-8 10 -11 13 -8 8 8 9 172 1 192 -13 31 -74 46 -118 28z m95 -141 c-7 -52 -69
-81 -107 -50 -40 34 4 83 70 78 36 -3 40 -5 37 -28z"/>
<path d="M11499 8420 c-23 -17 -28 -18 -33 -5 -3 8 -10 15 -16 15 -6 0 -10
-41 -10 -110 0 -87 3 -110 14 -110 10 0 15 20 17 79 5 90 23 121 71 121 18 0
28 5 28 15 0 21 -40 18 -71 -5z"/>
<path d="M11664 8429 c-74 -37 -70 -187 6 -216 28 -10 92 -9 110 2 24 15 6 21
-44 17 -45 -4 -57 -1 -75 17 -13 13 -21 32 -19 44 3 20 10 22 73 25 39 2 74 7
79 12 13 13 -13 78 -37 95 -24 17 -62 18 -93 4z m93 -49 c17 -34 9 -40 -52
-40 -59 0 -72 9 -55 40 24 44 84 44 107 0z"/>
<path d="M12725 8431 c-43 -18 -60 -50 -60 -112 0 -50 4 -62 27 -85 21 -22 36
-27 77 -28 28 0 56 5 63 12 9 9 1 12 -43 12 -29 0 -59 4 -66 8 -15 10 -35 61
-27 73 3 5 39 9 81 9 l76 0 -6 37 c-4 20 -14 45 -24 55 -22 21 -70 31 -98 19z
m71 -36 c14 -14 24 -31 21 -38 -4 -14 -106 -23 -117 -10 -13 13 8 53 32 63 34
13 37 12 64 -15z"/>
<path d="M13068 8433 c-10 -2 -18 -10 -18 -18 0 -9 9 -11 33 -5 41 9 73 -2 82
-29 9 -30 -2 -41 -40 -41 -74 0 -124 -44 -106 -93 6 -14 20 -31 31 -37 25 -13
74 -5 95 17 13 13 16 13 21 -1 3 -9 12 -16 20 -16 20 0 19 151 -1 189 -18 36
-62 49 -117 34z m100 -134 c5 -29 -37 -69 -73 -69 -56 0 -71 60 -21 80 33 14
90 7 94 -11z"/>
<path d="M13284 8417 c-42 -36 -28 -67 43 -103 47 -24 58 -34 58 -54 0 -24 -4
-25 -65 -30 -62 -5 -64 -6 -37 -18 36 -16 101 -5 123 20 30 32 9 68 -58 101
-41 19 -58 33 -58 47 0 26 15 33 74 32 47 -1 49 0 32 13 -30 22 -81 18 -112
-8z"/>
<path d="M13502 8428 c-26 -13 -38 -49 -25 -73 5 -9 34 -28 64 -43 54 -27 67
-45 50 -71 -7 -10 -26 -14 -65 -13 -66 2 -75 -14 -13 -23 74 -11 125 25 111
79 -4 18 -22 31 -66 50 -50 22 -59 30 -56 49 3 19 10 22 61 25 58 3 75 15 35
26 -33 8 -70 6 -96 -6z"/>
<path d="M13733 8428 c-27 -13 -53 -65 -53 -106 0 -48 17 -80 52 -102 38 -23
65 -25 105 -8 27 12 26 12 -31 18 -49 4 -62 10 -79 32 -33 45 -18 58 68 58
l75 0 0 31 c0 64 -76 107 -137 77z m82 -33 c42 -41 34 -55 -34 -55 -33 0 -63
4 -66 10 -9 15 13 50 38 60 32 13 36 12 62 -15z"/>
<path d="M13958 8429 c-10 -5 -22 -19 -28 -29 -16 -31 5 -59 65 -86 29 -14 55
-31 58 -38 11 -28 -17 -45 -78 -48 -58 -3 -59 -4 -30 -16 34 -15 98 -7 121 15
8 9 14 28 12 45 -3 30 -16 40 -90 74 -21 9 -38 21 -38 28 1 28 19 39 69 38 52
-2 69 11 29 22 -34 9 -71 7 -90 -5z"/>
<path d="M14168 8429 c-56 -32 -39 -85 37 -115 31 -13 48 -26 52 -42 8 -34 -9
-45 -66 -44 -59 2 -68 -13 -15 -22 51 -10 102 9 110 41 10 37 -4 54 -64 83
-54 26 -65 40 -56 65 5 11 21 15 61 15 48 0 54 2 43 15 -14 17 -76 20 -102 4z"/>
<path d="M14416 8425 c-13 -10 -23 -12 -30 -5 -22 22 -26 6 -26 -100 0 -67 4
-110 10 -110 6 0 10 25 10 56 0 112 30 160 89 144 31 -8 40 -38 38 -130 -3
-104 18 -91 27 17 7 94 13 108 52 116 47 9 63 -18 67 -112 2 -53 8 -86 15 -89
9 -3 12 23 12 90 0 99 -3 109 -37 127 -31 16 -57 14 -84 -8 -23 -19 -24 -19
-48 0 -28 23 -68 24 -95 4z"/>
<path d="M14803 8428 c-27 -13 -53 -66 -53 -108 0 -70 57 -124 122 -116 18 3
39 5 46 5 6 1 12 7 12 14 0 8 -15 11 -53 9 -58 -4 -84 13 -89 59 -3 23 -1 24
76 27 l78 3 -5 37 c-11 66 -74 99 -134 70z m97 -48 c5 -10 10 -23 10 -29 0
-13 -116 -15 -124 -3 -9 15 19 56 44 62 30 8 56 -3 70 -30z"/>
<path d="M15072 8424 c-18 -12 -27 -13 -35 -5 -23 23 -27 8 -27 -99 0 -91 3
-110 15 -110 12 0 15 15 15 79 0 93 16 122 67 123 55 2 63 -14 63 -113 0 -72
3 -89 15 -89 12 0 15 17 15 93 0 79 -3 97 -19 111 -28 25 -82 30 -109 10z"/>
<path d="M15745 8431 c-51 -22 -73 -83 -55 -151 11 -42 55 -80 93 -80 35 0 82
30 96 61 19 44 9 115 -21 145 -26 27 -81 39 -113 25z m105 -51 c14 -26 12
-102 -3 -121 -24 -31 -55 -41 -84 -27 -70 33 -69 152 1 177 27 10 73 -6 86
-29z"/>
<path d="M16017 8420 c-24 -19 -28 -19 -33 -6 -15 40 -24 7 -24 -94 0 -91 3
-110 15 -110 12 0 15 15 15 74 0 83 20 122 66 128 30 4 37 22 8 26 -11 2 -32
-7 -47 -18z"/>
<path d="M16709 8417 c-38 -26 -51 -68 -40 -131 9 -55 58 -90 115 -83 65 9 68
27 4 27 -47 0 -59 4 -72 22 -9 12 -16 33 -16 45 0 22 4 23 75 23 l75 0 0 31
c0 38 -48 89 -83 89 -13 0 -39 -10 -58 -23z m99 -25 c6 -9 12 -24 12 -34 0
-15 -9 -18 -60 -18 -53 0 -60 2 -60 19 0 11 12 29 27 40 28 23 59 20 81 -7z"/>
<path d="M17052 8428 c-25 -13 -38 -49 -25 -72 5 -9 33 -28 63 -43 55 -28 68
-46 51 -72 -7 -10 -27 -14 -68 -13 -53 1 -56 0 -39 -13 41 -31 131 -5 142 39
8 34 -8 52 -73 83 -37 18 -53 31 -53 44 0 25 39 40 84 32 22 -3 36 -2 36 5 0
23 -77 29 -118 10z"/>
<path d="M10270 8424 c0 -5 15 -44 66 -166 22 -54 22 -59 7 -89 -9 -17 -29
-37 -44 -43 -31 -11 -39 -26 -15 -26 52 0 78 29 109 120 16 45 59 160 72 193
5 12 2 17 -8 17 -15 0 -20 -10 -58 -117 -12 -35 -25 -63 -29 -63 -4 0 -22 41
-40 90 -19 54 -38 90 -46 90 -8 0 -14 -3 -14 -6z"/>
<path d="M17470 8320 c0 -91 3 -110 15 -110 12 0 15 19 15 110 0 91 -3 110
-15 110 -12 0 -15 -19 -15 -110z"/>
<path d="M13688 7816 c-35 -26 -11 -71 33 -64 35 5 47 33 25 57 -22 24 -34 26
-58 7z"/>
<path d="M10760 7611 l0 -201 40 0 40 0 0 75 c0 72 1 75 24 75 19 0 34 -16 71
-75 l46 -75 45 0 c51 0 53 -6 -20 94 l-50 69 26 21 c47 39 61 96 36 150 -20
46 -55 60 -160 64 l-98 4 0 -201z m172 112 c19 -17 23 -49 10 -71 -11 -16 -68
-33 -88 -25 -15 6 -21 103 -7 117 11 11 64 -2 85 -21z"/>
<path d="M12511 7753 c-43 -87 -56 -181 -37 -273 20 -95 61 -164 100 -168 33
-4 33 -4 -9 97 -23 54 -27 80 -27 150 0 87 23 175 57 228 15 23 15 23 -20 23
-32 0 -37 -4 -64 -57z"/>
<path d="M12680 7610 l0 -200 95 0 c146 0 198 32 197 123 -1 32 -7 47 -26 64
-31 27 -31 28 -6 53 24 24 27 86 5 117 -21 30 -74 43 -177 43 l-88 0 0 -200z
m188 118 c15 -13 16 -40 0 -56 -7 -7 -34 -12 -60 -12 l-48 0 0 39 c0 22 6 42
13 45 17 7 79 -3 95 -16z m0 -154 c25 -17 29 -51 8 -79 -10 -14 -27 -19 -62
-19 l-49 -1 -3 58 -3 57 43 0 c24 0 54 -7 66 -16z"/>
<path d="M14143 7768 c59 -106 63 -281 10 -388 -16 -33 -27 -62 -25 -65 3 -3
16 -5 29 -5 28 0 64 52 88 128 13 39 16 76 13 145 -3 78 -9 102 -37 160 -30
64 -34 67 -67 67 l-35 0 24 -42z"/>
<path d="M12124 7756 c-3 -13 -19 -36 -35 -50 -34 -31 -37 -46 -9 -46 18 0 20
-7 20 -72 0 -134 26 -178 105 -178 51 0 80 19 71 46 -5 16 -13 19 -40 16 -46
-5 -58 18 -54 111 l3 72 43 3 c39 3 42 5 42 32 0 27 -3 29 -42 32 -39 3 -43 6
-46 31 -4 37 -49 39 -58 3z"/>
<path d="M11191 7702 c-57 -29 -76 -64 -76 -140 1 -106 48 -152 153 -152 70 0
102 14 102 43 0 24 -2 24 -67 20 -73 -5 -99 5 -105 42 -3 19 4 20 92 25 l95 5
3 28 c2 15 -6 47 -18 71 -16 34 -30 48 -61 60 -51 20 -76 20 -118 -2z m104
-62 c30 -33 13 -51 -47 -48 -47 3 -53 5 -50 23 2 11 9 26 14 33 16 18 63 14
83 -8z"/>
<path d="M11511 7707 c-40 -14 -47 -26 -29 -49 11 -15 19 -15 56 -5 51 14 75
3 80 -35 3 -24 0 -25 -64 -31 -70 -7 -99 -23 -115 -65 -11 -30 12 -86 42 -102
28 -16 104 -7 128 14 23 21 28 20 34 -4 3 -14 14 -20 31 -20 l26 0 0 123 c0
137 -8 155 -69 176 -42 14 -76 13 -120 -2z m109 -186 c0 -37 -20 -53 -62 -49
-66 6 -30 77 40 78 18 0 22 -6 22 -29z"/>
<path d="M11871 7706 c-18 -6 -44 -24 -56 -38 -46 -54 -44 -167 5 -221 23 -26
35 -31 87 -35 76 -5 103 8 103 49 0 26 -3 30 -17 24 -43 -16 -74 -17 -97 -1
-31 20 -42 72 -26 120 13 41 39 52 95 42 31 -6 36 -4 45 19 13 35 15 33 -27
44 -47 13 -69 13 -112 -3z"/>
<path d="M13125 7713 c-59 -15 -65 -21 -53 -48 9 -20 17 -25 32 -20 51 17 83
17 100 0 23 -24 16 -49 -14 -53 -127 -13 -160 -33 -160 -97 0 -77 90 -112 166
-65 l32 21 7 -21 c4 -14 15 -20 36 -20 l29 0 0 113 c0 69 -5 122 -13 137 -22
45 -96 69 -162 53z m93 -186 c6 -28 -27 -57 -63 -57 -53 0 -58 50 -7 69 38 14
66 9 70 -12z"/>
<path d="M13428 7704 c-25 -11 -40 -25 -47 -46 -17 -47 4 -78 74 -114 42 -21
60 -36 60 -50 0 -17 -7 -19 -72 -17 -72 2 -73 2 -73 -23 0 -30 31 -44 100 -44
89 0 130 29 130 90 0 46 -17 65 -79 92 -62 26 -74 37 -60 54 14 17 49 18 84 2
22 -10 28 -9 36 3 18 29 10 48 -28 58 -51 14 -81 13 -125 -5z"/>
<path d="M13677 7713 c-4 -3 -7 -73 -7 -155 l0 -148 40 0 c22 0 40 3 41 8 4
57 5 236 2 265 -5 34 -8 37 -38 37 -17 0 -35 -3 -38 -7z"/>
<path d="M13925 7709 c-17 -4 -44 -22 -60 -39 -28 -29 -30 -36 -30 -110 0 -76
1 -81 32 -111 26 -26 41 -33 85 -36 75 -7 108 8 108 48 0 26 -3 30 -17 24 -10
-4 -34 -9 -54 -12 -31 -4 -39 -1 -58 23 -19 24 -22 38 -18 78 6 64 26 80 88
72 45 -6 47 -5 57 23 10 29 10 31 -26 41 -43 12 -66 12 -107 -1z"/>
<path d="M17969 5333 c-8 -40 -9 -102 -5 -196 l7 -137 -30 -53 c-16 -28 -39
-62 -51 -75 -21 -22 -23 -22 -35 -5 -13 17 -14 17 -34 -1 -14 -13 -19 -26 -15
-41 4 -15 0 -24 -10 -28 -24 -10 -46 21 -46 64 0 37 -19 58 -21 22 -1 -41 -9
-77 -17 -85 -18 -18 -32 54 -43 206 -11 170 -16 194 -31 156 -13 -33 20 -321
44 -383 13 -33 41 -33 46 1 4 23 16 29 27 12 3 -5 19 -10 35 -10 35 0 126 85
153 142 10 20 22 40 26 43 5 3 17 -19 27 -47 25 -76 48 -113 71 -116 15 -2 22
4 27 23 6 25 16 31 128 79 20 9 44 16 55 16 10 0 40 18 67 40 51 42 65 47 98
29 28 -15 71 5 108 49 l28 35 30 -22 c49 -34 156 -19 189 28 11 17 18 19 33
11 29 -15 46 -12 78 15 17 14 36 23 44 20 8 -3 34 5 58 19 23 13 50 22 59 19
12 -5 13 -3 5 6 -9 10 -22 8 -60 -9 -27 -11 -58 -19 -70 -16 -14 4 -28 -2 -44
-19 -26 -28 -42 -31 -58 -12 -6 7 -31 13 -56 15 -38 1 -48 -3 -65 -25 -12 -14
-21 -32 -21 -39 0 -26 -59 -16 -90 15 l-29 29 -27 -37 c-63 -85 -121 -96 -136
-26 -2 11 -10 18 -19 16 -8 -2 -29 -7 -48 -12 -43 -10 -69 -35 -85 -84 -14
-38 -46 -58 -118 -72 -24 -5 -28 -2 -29 18 l-1 24 -7 -25 c-5 -19 -15 -26 -38
-28 -59 -6 -69 65 -17 122 33 35 58 31 62 -12 3 -33 22 -36 22 -3 0 19 -35 61
-52 61 -6 0 -25 -16 -44 -35 -18 -19 -36 -35 -40 -35 -3 0 -4 20 -2 45 4 28 1
46 -6 48 -7 2 -12 46 -14 118 -5 151 20 215 48 126 l10 -32 -5 32 c-4 30 -31
73 -47 73 -3 0 -12 -26 -19 -57z m811 -230 c0 -10 -32 -43 -42 -43 -10 0 -11
34 -1 43 8 9 43 9 43 0z m-416 -85 c-15 -26 -48 -58 -61 -58 -18 0 -16 13 8
44 21 26 67 38 53 14z m-286 -177 c-9 -15 -16 -17 -25 -9 -16 13 -7 28 18 28
16 0 18 -3 7 -19z m-238 -1 c0 -5 -5 -10 -11 -10 -5 0 -7 5 -4 10 3 6 8 10 11
10 2 0 4 -4 4 -10z"/>
<path d="M18032 5160 c0 -19 2 -27 5 -17 2 9 2 25 0 35 -3 9 -5 1 -5 -18z"/>
<path d="M16265 5107 c-4 -10 -5 -21 -1 -24 10 -10 18 4 13 24 -4 17 -4 17
-12 0z"/>
<path d="M17612 5040 c0 -14 2 -19 5 -12 2 6 2 18 0 25 -3 6 -5 1 -5 -13z"/>
<path d="M16252 5015 c0 -16 2 -22 5 -12 2 9 2 23 0 30 -3 6 -5 -1 -5 -18z"/>
<path d="M17007 4928 c-9 -46 -26 -132 -37 -193 -34 -183 -32 -176 -70 -197
l-35 -20 34 7 34 7 -5 -67 c-5 -60 -4 -64 8 -41 7 15 14 47 16 73 2 39 7 50
28 60 21 10 26 10 28 -2 4 -18 22 -20 22 -2 1 17 31 52 59 66 14 8 20 16 14
22 -11 11 -43 2 -43 -11 0 -12 -64 -50 -84 -50 -13 0 -16 8 -12 43 3 23 10 62
16 87 5 25 17 79 25 120 8 41 19 95 24 120 13 57 13 60 2 60 -5 0 -16 -37 -24
-82z"/>
<path d="M16801 4958 c-7 -24 -16 -68 -22 -98 -6 -30 -16 -86 -24 -125 -32
-167 -55 -299 -55 -321 0 -38 18 -28 22 12 3 35 5 37 68 57 72 23 76 25 68 33
-4 3 -15 1 -25 -4 -10 -5 -37 -13 -60 -17 l-43 -7 0 40 c0 23 5 53 11 69 6 15
14 55 19 88 12 73 34 185 42 205 4 8 8 29 11 45 2 17 8 38 12 48 4 9 3 17 -3
17 -5 0 -15 -19 -21 -42z"/>
<path d="M16217 4889 c-4 -19 -21 -57 -37 -82 -16 -26 -26 -47 -21 -47 5 0 11
6 14 13 3 7 9 2 15 -13 9 -22 10 -20 10 19 0 37 4 48 26 64 18 13 24 23 17 31
-5 6 -11 20 -13 31 -3 14 -6 10 -11 -16z"/>
<path d="M17582 4900 c0 -14 2 -19 5 -12 2 6 2 18 0 25 -3 6 -5 1 -5 -13z"/>
<path d="M16310 4896 c0 -2 9 -6 20 -9 11 -3 18 -1 14 4 -5 9 -34 13 -34 5z"/>
<path d="M17417 4863 c-4 -3 -7 -17 -7 -30 0 -24 50 -63 80 -63 8 1 -2 10 -22
20 -48 26 -54 37 -32 61 14 16 14 19 2 19 -8 0 -18 -3 -21 -7z"/>
<path d="M17561 4844 c0 -11 3 -14 6 -6 3 7 2 16 -1 19 -3 4 -6 -2 -5 -13z"/>
<path d="M17551 4794 c0 -11 3 -14 6 -6 3 7 2 16 -1 19 -3 4 -6 -2 -5 -13z"/>
<path d="M17514 4753 c3 -10 -1 -40 -9 -67 -19 -61 -8 -78 33 -56 32 18 39 50
21 102 -8 26 -18 38 -31 38 -14 0 -18 -5 -14 -17z m44 -57 c4 -20 -15 -46 -34
-46 -17 0 -18 24 -2 50 15 23 31 21 36 -4z"/>
<path d="M16125 4709 c-4 -6 -5 -12 -2 -15 2 -3 7 2 10 11 7 17 1 20 -8 4z"/>
<path d="M17245 4687 c-27 -56 -74 -107 -101 -107 -13 0 -24 5 -24 10 0 21
-28 9 -34 -15 -8 -30 -45 -75 -62 -75 -7 0 -15 8 -17 18 -3 11 -5 7 -6 -10 0
-15 4 -30 9 -33 11 -7 59 37 77 70 8 14 20 19 47 17 40 -3 72 24 102 86 9 17
19 32 23 32 4 0 14 -15 22 -32 20 -46 55 -49 94 -8 16 16 37 30 47 30 21 0 23
10 5 34 -13 17 -15 16 -35 -18 -26 -44 -64 -65 -87 -46 -8 7 -15 21 -15 30 0
25 -10 50 -21 50 -4 0 -15 -15 -24 -33z"/>
<path d="M16176 4688 c-2 -7 -9 -35 -16 -63 -21 -85 -21 -87 -36 -81 -19 7
-18 -3 2 -25 13 -15 14 -24 5 -50 -13 -39 -14 -49 -2 -49 5 0 11 18 15 40 5
33 10 40 29 41 22 0 22 0 -2 10 -18 7 -22 14 -16 32 10 33 33 157 28 157 -2 0
-5 -6 -7 -12z"/>
<path d="M16111 4664 c0 -11 3 -14 6 -6 3 7 2 16 -1 19 -3 4 -6 -2 -5 -13z"/>
<path d="M16090 4598 c0 -25 3 -29 10 -18 13 20 13 50 0 50 -5 0 -10 -15 -10
-32z"/>
<path d="M16362 4570 c0 -19 2 -27 5 -17 2 9 2 25 0 35 -3 9 -5 1 -5 -18z"/>
<path d="M16435 4590 c-3 -5 3 -10 15 -10 12 0 18 5 15 10 -3 6 -10 10 -15 10
-5 0 -12 -4 -15 -10z"/>
<path d="M16331 4444 c0 -11 3 -14 6 -6 3 7 2 16 -1 19 -3 4 -6 -2 -5 -13z"/>
<path d="M16720 4370 c0 -5 5 -10 11 -10 5 0 7 5 4 10 -3 6 -8 10 -11 10 -2 0
-4 -4 -4 -10z"/>
<path d="M16292 4358 c-7 -7 -12 -19 -12 -28 0 -9 -5 -21 -12 -28 -9 -9 -9
-12 0 -12 6 0 15 12 18 28 4 15 12 30 18 34 6 4 8 9 5 12 -3 3 -11 0 -17 -6z"/>
<path d="M16109 4327 c-5 -40 5 -154 15 -164 13 -13 19 8 8 30 -7 12 -13 56
-14 97 -2 57 -4 66 -9 37z"/>
<path d="M16176 4174 c-29 -25 -30 -48 -1 -24 15 12 40 50 33 50 -2 0 -16 -12
-32 -26z"/>
<path d="M6373 4148 c-53 -43 -66 -73 -38 -84 8 -3 27 4 42 16 l28 22 3 -136
3 -136 35 0 34 0 -2 178 -3 177 -25 3 c-17 2 -42 -11 -77 -40z"/>
<path d="M6653 4176 c-47 -21 -65 -57 -71 -139 -5 -92 10 -148 49 -181 58 -49
145 -26 174 46 36 91 7 246 -50 268 -49 18 -70 20 -102 6z m64 -54 c20 -13 33
-60 33 -120 0 -70 -17 -106 -51 -110 -35 -4 -49 31 -49 123 0 62 4 79 20 95
22 22 29 24 47 12z"/>
<path d="M7010 4010 l0 -182 88 4 c149 7 197 51 197 178 0 62 -4 81 -22 106
-32 45 -83 66 -180 72 l-83 5 0 -183z m178 98 c22 -19 42 -65 42 -97 0 -73
-53 -127 -116 -119 l-29 3 -3 104 c-1 58 0 111 3 119 4 11 15 13 47 8 23 -4
48 -12 56 -18z"/>
<path d="M8248 4178 c-20 -5 -44 -18 -54 -29 -16 -18 -16 -21 -1 -36 13 -14
21 -15 42 -5 36 16 80 15 95 -3 21 -26 2 -62 -80 -150 -46 -48 -80 -93 -80
-105 0 -19 6 -20 125 -20 l125 0 0 30 0 30 -75 0 c-41 0 -75 4 -75 8 0 5 22
27 49 50 62 53 95 117 84 163 -15 58 -82 87 -155 67z"/>
<path d="M8524 4171 c-53 -24 -69 -62 -69 -166 0 -125 43 -180 133 -172 53 6
76 26 96 85 19 54 20 110 4 166 -14 51 -34 75 -75 92 -40 17 -40 17 -89 -5z
m81 -62 c16 -16 19 -36 18 -104 0 -91 -10 -115 -49 -115 -34 0 -48 34 -47 123
0 60 4 82 18 97 23 25 37 25 60 -1z"/>
<path d="M8806 4175 c-56 -20 -70 -36 -52 -60 12 -17 17 -18 40 -7 34 15 79
15 94 0 27 -27 12 -58 -74 -148 -53 -56 -84 -97 -82 -108 3 -15 19 -17 126
-20 l122 -3 0 31 0 30 -76 0 -76 0 65 70 c70 74 89 120 69 165 -23 50 -94 73
-156 50z"/>
<path d="M9080 4179 c-50 -15 -62 -29 -45 -52 12 -17 18 -18 48 -8 62 21 110
-6 87 -49 -7 -13 -23 -20 -53 -22 -37 -3 -42 -6 -42 -28 0 -21 6 -25 43 -32
56 -9 62 -14 62 -47 0 -44 -21 -54 -95 -49 -63 6 -65 5 -65 -18 0 -30 32 -44
96 -44 86 0 144 46 144 114 0 24 -50 76 -73 76 -7 0 3 9 20 20 37 22 49 54 34
93 -16 42 -96 64 -161 46z"/>
<path d="M16492 4138 c-19 -19 -14 -37 12 -44 30 -7 46 1 46 26 0 27 -37 39
-58 18z"/>
<path d="M16867 4143 c-4 -3 -7 -82 -7 -175 l0 -168 30 0 c22 0 30 5 31 18 10
175 12 182 58 182 44 0 51 -16 51 -112 l0 -88 30 0 30 0 0 103 c0 125 -13 147
-85 147 -24 0 -47 -4 -50 -10 -3 -5 -13 -10 -20 -10 -11 0 -13 11 -10 43 6 57
-2 77 -29 77 -12 0 -26 -3 -29 -7z"/>
<path d="M17767 4143 c-4 -3 -7 -82 -7 -175 l0 -168 30 0 c27 0 30 3 30 33 0
72 35 78 79 15 29 -41 38 -48 68 -48 25 0 32 3 27 13 -14 23 -49 71 -62 85
-34 37 -32 48 13 92 25 25 45 48 45 52 0 4 -13 8 -29 8 -22 0 -40 -12 -79 -55
-27 -29 -52 -51 -56 -48 -3 4 -6 51 -6 105 0 96 0 98 -23 98 -13 0 -27 -3 -30
-7z"/>
<path d="M15640 3964 l0 -164 30 0 30 0 0 70 0 70 70 0 70 0 0 -70 0 -70 30 0
30 0 0 165 c0 91 -3 165 -7 165 -5 0 -18 -3 -30 -6 -21 -6 -23 -13 -23 -65 l0
-59 -70 0 -69 0 -3 61 c-3 59 -4 62 -30 65 l-28 3 0 -165z"/>
<path d="M19283 4123 c-10 -3 -13 -46 -13 -164 l0 -159 30 0 c30 0 30 1 30 53
0 40 5 58 18 71 18 15 21 13 63 -54 40 -63 47 -70 76 -70 18 0 33 3 33 8 0 4
-23 41 -50 82 -27 41 -50 81 -50 88 0 8 20 40 45 72 51 66 55 80 22 80 -24 0
-62 -35 -112 -103 -15 -21 -32 -34 -36 -30 -4 4 -9 35 -11 68 -3 60 -12 72
-45 58z"/>
<path d="M7435 4080 c-44 -18 -66 -55 -68 -113 -2 -88 48 -137 140 -137 61 0
83 10 83 35 0 22 -3 23 -65 22 -49 -2 -68 2 -75 13 -22 35 -12 40 75 40 l85 0
0 28 c0 39 -31 95 -60 109 -28 14 -85 16 -115 3z m86 -50 c10 -6 19 -20 19
-31 0 -18 -6 -20 -47 -17 -51 3 -63 17 -38 42 19 19 38 20 66 6z"/>
<path d="M7722 4075 c-59 -26 -81 -128 -42 -193 22 -36 54 -52 105 -52 54 0
85 16 85 44 0 24 -2 24 -54 19 -48 -5 -55 -3 -70 18 -20 30 -21 68 0 97 13 20
24 23 62 21 39 -3 47 0 55 19 6 12 7 25 4 29 -15 14 -113 13 -145 -2z"/>
<path d="M16051 4049 c-52 -10 -53 -11 -45 -33 6 -15 15 -16 54 -11 36 5 49 3
59 -9 22 -27 6 -46 -39 -46 -84 0 -129 -53 -98 -117 11 -24 20 -28 64 -31 36
-2 54 1 64 13 16 19 30 19 30 0 0 -10 10 -15 30 -15 l30 0 0 84 c0 111 -11
140 -61 160 -22 9 -40 16 -42 15 -1 -1 -22 -5 -46 -10z m77 -155 c4 -26 -30
-56 -60 -52 -30 4 -38 46 -11 65 26 20 67 13 71 -13z"/>
<path d="M17255 4055 c-5 -2 -22 -6 -37 -9 -20 -5 -28 -13 -28 -28 0 -19 4
-20 46 -14 51 7 74 -4 74 -35 0 -16 -8 -19 -49 -19 -83 0 -124 -49 -97 -114
14 -34 18 -36 61 -36 25 0 57 7 70 16 23 15 25 15 31 0 3 -9 15 -16 25 -16 17
0 19 9 19 103 0 56 -4 107 -8 114 -8 12 -74 44 -89 42 -4 0 -12 -2 -18 -4z
m55 -159 c0 -31 -25 -56 -55 -56 -39 0 -45 63 -7 73 45 12 62 7 62 -17z"/>
<path d="M18125 4053 c-56 -15 -68 -23 -54 -39 9 -11 22 -14 46 -9 48 9 73 -2
73 -31 0 -22 -4 -24 -49 -24 -38 0 -56 -6 -77 -23 -33 -28 -37 -76 -9 -107 23
-25 90 -27 117 -3 17 15 19 15 36 0 10 -10 26 -17 35 -17 15 0 17 12 17 88 0
105 -5 127 -34 145 -26 17 -74 27 -101 20z m65 -162 c0 -16 -7 -34 -14 -41
-20 -16 -56 -9 -70 13 -9 15 -7 22 13 38 13 10 34 19 47 19 20 0 24 -5 24 -29z"/>
<path d="M18602 4048 c-32 -7 -42 -14 -40 -26 3 -14 14 -16 54 -14 36 2 55 -2
64 -13 21 -26 4 -45 -40 -45 -93 0 -141 -67 -91 -127 23 -28 85 -31 120 -7 22
16 24 16 33 0 12 -21 46 -21 50 0 2 9 1 57 -2 107 -5 82 -7 92 -30 108 -34 24
-67 29 -118 17z m86 -154 c4 -26 -30 -56 -60 -52 -34 5 -38 54 -6 68 35 14 63
8 66 -16z"/>
<path d="M16277 4028 c-3 -13 -3 -66 -1 -118 2 -52 4 -98 4 -102 0 -5 14 -8
30 -8 l30 0 0 84 c0 91 4 99 58 111 25 5 32 12 32 31 0 31 -36 33 -74 3 l-27
-21 -6 21 c-7 28 -39 27 -46 -1z"/>
<path d="M16487 4043 c-4 -6 -2 -208 2 -235 0 -5 15 -8 31 -8 l31 0 -3 123 -3
122 -27 3 c-14 2 -28 0 -31 -5z"/>
<path d="M16648 4039 c-26 -15 -39 -45 -32 -73 3 -15 24 -33 57 -52 58 -31 68
-41 60 -62 -5 -11 -18 -13 -65 -8 -58 6 -64 2 -52 -28 5 -12 21 -16 73 -16 70
1 94 11 105 48 15 45 -1 71 -60 99 -38 18 -54 31 -52 42 3 13 14 15 56 13 46
-3 52 -1 52 16 0 11 -7 23 -16 26 -25 9 -107 6 -126 -5z"/>
<path d="M17457 4043 c-4 -3 -7 -60 -7 -125 l0 -118 35 0 35 0 0 81 c0 95 10
119 48 119 45 0 52 -16 52 -112 l0 -88 30 0 30 0 0 105 c0 94 -2 106 -22 125
-27 25 -99 28 -118 5 -12 -14 -15 -14 -36 0 -25 16 -37 19 -47 8z"/>
<path d="M18340 3925 l0 -125 30 0 30 0 0 79 c0 88 9 105 60 116 23 5 30 12
30 31 0 31 -36 33 -73 4 -25 -20 -25 -20 -30 0 -3 12 -14 20 -26 20 -20 0 -21
-5 -21 -125z"/>
<path d="M18837 4043 c-4 -3 -7 -60 -7 -125 l0 -119 33 3 32 3 1 83 c2 91 12
112 53 112 44 0 51 -16 51 -112 l0 -88 30 0 30 0 0 103 c-1 72 -5 107 -15 121
-20 26 -95 33 -127 12 -23 -15 -26 -15 -31 -1 -6 15 -38 21 -50 8z"/>
<path d="M7929 3888 c0 -2 -6 -29 -13 -60 l-12 -58 26 0 c22 0 29 7 43 48 23
64 22 72 -13 72 -16 0 -30 -1 -31 -2z"/>
<path d="M17357 3283 c-4 -3 -7 -71 -7 -150 0 -111 3 -143 13 -143 9 0 12 11
11 32 -2 34 10 58 30 58 6 -1 26 -21 44 -45 18 -25 40 -45 48 -45 11 0 6 12
-18 45 -18 25 -37 52 -43 60 -7 11 1 26 35 60 24 25 38 45 30 45 -8 0 -36 -21
-62 -47 -26 -26 -50 -44 -54 -40 -4 3 -8 43 -11 89 -4 86 -5 92 -16 81z"/>
<path d="M18690 3140 c0 -93 4 -150 10 -150 6 0 10 13 10 29 0 73 26 79 72 16
18 -24 39 -44 46 -45 17 0 15 11 -9 40 -11 14 -29 37 -40 52 l-20 27 37 41
c20 22 33 44 29 48 -4 4 -28 -17 -54 -46 -26 -28 -51 -49 -54 -45 -4 3 -7 46
-7 95 0 52 -4 88 -10 88 -6 0 -10 -57 -10 -150z"/>
<path d="M15700 3263 c-110 -57 -108 -234 4 -270 38 -13 116 -8 116 8 0 5 -22
8 -50 8 -82 -2 -120 36 -120 122 0 82 51 127 130 116 22 -3 40 -1 40 3 0 26
-78 34 -120 13z"/>
<path d="M16193 3273 c-81 -16 -120 -157 -67 -240 30 -47 109 -60 174 -30 71
34 78 199 10 248 -27 19 -81 30 -117 22z m88 -33 c29 -16 49 -64 49 -117 0
-89 -76 -142 -148 -104 -60 32 -71 162 -18 208 29 25 83 31 117 13z"/>
<path d="M8437 3263 c-4 -3 -7 -66 -7 -140 l0 -133 60 0 c116 0 160 40 160
145 0 66 -20 102 -67 121 -33 14 -134 19 -146 7z m140 -33 c19 -11 35 -31 39
-47 3 -15 8 -34 10 -42 2 -7 -1 -31 -6 -53 -14 -49 -57 -78 -117 -78 l-43 0 0
120 0 120 43 0 c24 0 56 -8 74 -20z"/>
<path d="M15860 3260 c0 -5 18 -10 39 -10 26 0 41 -5 45 -16 3 -9 6 -67 6
-130 0 -159 19 -148 22 14 l3 127 43 3 c23 2 40 7 37 13 -8 12 -195 12 -195
-1z"/>
<path d="M16640 3129 c0 -108 3 -140 13 -136 8 2 11 20 9 56 -2 28 1 58 7 65
12 14 80 20 124 10 26 -5 27 -8 27 -70 0 -50 3 -64 15 -64 13 0 15 22 15 141
0 108 -3 140 -12 137 -8 -3 -14 -27 -16 -60 l-3 -56 -72 -4 c-77 -3 -88 2 -86
42 3 48 -1 80 -11 80 -6 0 -10 -54 -10 -141z"/>
<path d="M17968 3264 c0 -5 -2 -69 -2 -141 -1 -97 2 -133 11 -133 8 0 13 21
15 58 3 55 4 57 33 60 28 3 34 -2 65 -57 19 -34 41 -61 48 -61 18 0 15 7 -18
62 -34 54 -36 64 -16 75 38 23 47 90 15 119 -21 19 -148 34 -151 18z m120 -30
c53 -37 11 -109 -60 -102 -31 3 -33 5 -36 47 -2 24 -1 50 2 57 7 19 66 18 94
-2z"/>
<path d="M8961 3230 c-8 -14 -19 -28 -25 -32 -8 -5 -7 -11 2 -20 7 -7 12 -40
12 -83 0 -42 5 -78 13 -87 16 -21 48 -30 67 -18 12 8 11 10 -6 10 -36 0 -45
23 -42 102 3 71 4 73 31 76 36 4 35 22 -2 22 -25 0 -30 4 -33 28 l-3 27 -14
-25z"/>
<path d="M8747 3193 c-17 -16 -4 -22 38 -16 42 5 45 4 55 -22 13 -35 6 -45
-36 -45 -36 0 -73 -15 -86 -34 -13 -18 -9 -63 6 -75 19 -16 82 -17 101 -1 12
10 18 10 30 0 13 -11 15 -1 15 77 0 74 -3 93 -18 106 -18 17 -92 24 -105 10z
m103 -112 c0 -51 -51 -92 -89 -72 -27 15 -29 67 -3 74 32 9 92 7 92 -2z"/>
<path d="M9112 3177 c-51 -54 -32 -168 32 -185 36 -10 96 -4 96 9 0 5 -22 9
-50 9 -42 0 -52 4 -66 25 -27 42 -13 55 61 55 49 0 67 4 71 15 8 21 -15 74
-37 85 -32 18 -84 12 -107 -13z m100 -14 c10 -9 18 -25 18 -35 0 -17 -7 -19
-57 -16 -63 3 -75 16 -44 47 25 25 58 27 83 4z"/>
<path d="M16957 3193 c-17 -16 -4 -23 31 -17 29 4 43 2 56 -11 29 -29 16 -49
-34 -55 -68 -9 -90 -25 -90 -64 0 -54 49 -78 102 -52 23 12 34 13 39 5 16 -27
25 6 21 83 -5 100 -16 118 -77 118 -23 0 -45 -3 -48 -7z m103 -112 c0 -47 -45
-87 -86 -77 -19 5 -24 13 -24 36 0 17 7 33 18 39 22 13 92 14 92 2z"/>
<path d="M17175 3174 c-34 -37 -36 -121 -2 -158 23 -26 32 -29 85 -27 49 2 38
21 -12 21 -40 0 -45 3 -61 36 -34 72 7 144 75 129 23 -5 30 -3 30 9 0 12 -11
16 -45 16 -37 0 -51 -5 -70 -26z"/>
<path d="M17593 3185 c-47 -33 -51 -134 -8 -175 25 -24 108 -31 128 -11 9 9 3
12 -28 10 -22 -1 -50 1 -63 5 -24 8 -47 50 -36 67 3 5 36 9 75 9 l69 0 0 29
c0 64 -83 104 -137 66z m91 -21 c9 -8 16 -24 16 -35 0 -16 -7 -19 -55 -19 -51
0 -55 2 -55 23 0 13 5 28 12 35 17 17 64 15 82 -4z"/>
<path d="M17797 3193 c-3 -4 -5 -52 -6 -105 -2 -83 0 -98 14 -98 12 0 15 14
15 74 0 69 2 76 26 95 15 12 35 21 45 21 11 0 19 5 19 10 0 16 -42 11 -63 -7
-18 -17 -19 -17 -32 0 -7 10 -15 15 -18 10z"/>
<path d="M18233 3193 c-30 -12 -10 -24 30 -18 49 7 65 -2 69 -35 3 -22 -1 -25
-42 -30 -84 -11 -117 -48 -86 -95 13 -20 25 -25 59 -25 24 0 49 6 56 13 11 10
14 10 18 0 13 -36 23 -3 23 75 0 73 -3 92 -18 105 -18 16 -81 22 -109 10z m97
-132 c0 -50 -61 -79 -94 -45 -35 34 -6 74 55 74 37 0 39 -2 39 -29z"/>
<path d="M18440 3095 c0 -63 4 -105 10 -105 6 0 10 29 10 66 0 91 19 124 71
124 39 0 48 -18 51 -105 2 -52 7 -80 16 -83 9 -3 12 18 12 82 0 73 -3 89 -20
106 -23 23 -70 26 -101 8 -17 -10 -23 -10 -26 0 -14 37 -23 0 -23 -93z"/>
<path d="M16420 3008 c0 -13 -3 -33 -6 -45 -9 -31 10 -29 24 2 16 36 15 65 -3
65 -9 0 -15 -9 -15 -22z"/>
</g>
</svg>
